<?xml version="1.0" encoding="UTF-8" standalone="no"?>
<!DOCTYPE svg PUBLIC "-//W3C//DTD SVG 20010904//EN"
              "http://www.w3.org/TR/2001/REC-SVG-20010904/DTD/svg10.dtd">

<svg xmlns="http://www.w3.org/2000/svg"
     width="5.55556in" height="5.55556in"
     viewBox="0 0 400 400">
  <path id="MicOff"
        fill="none" stroke="black" stroke-width="1"
        d="M 260.48,235.79
           C 262.30,237.61 268.01,244.10 270.37,244.10
             272.73,244.10 278.44,237.61 280.26,235.79
             285.56,230.52 299.60,215.88 304.61,212.30
             304.61,212.30 326.68,235.04 326.68,235.04
             326.68,235.04 303.02,258.66 303.02,258.66
             301.18,260.44 294.75,266.02 294.75,268.38
             294.75,270.77 301.95,277.10 303.85,279.00
             309.33,284.45 325.31,299.69 328.96,304.77
             328.96,304.77 306.13,326.75 306.13,326.75
             306.13,326.75 280.23,300.97 280.23,300.97
             278.47,299.16 272.71,292.67 270.37,292.67
             267.98,292.67 261.62,299.84 259.72,301.73
             254.24,307.19 238.95,323.11 233.85,326.75
             233.85,326.75 211.78,304.01 211.78,304.01
             211.78,304.01 237.65,278.24 237.65,278.24
             239.47,276.43 245.99,270.74 245.99,268.38
             245.99,266.02 239.56,260.44 237.72,258.66
             237.72,258.66 214.07,234.28 214.07,234.28
             214.07,234.28 236.13,212.30 236.13,212.30
             241.15,215.88 255.19,230.52 260.48,235.79 Z" />
  <path id="MicHead"
        fill="none" stroke="black" stroke-width="1"
        d="M 261.00,76.22
           C 267.87,76.08 275.55,77.71 282.00,80.05
             326.25,96.15 338.50,150.87 308.56,186.00
             303.18,192.31 294.61,198.59 287.00,201.96
             276.97,206.40 267.92,208.12 257.00,208.00
             208.35,207.43 178.65,154.64 199.97,112.00
             210.46,91.02 228.47,80.12 251.00,76.22
             251.00,76.22 261.00,76.22 261.00,76.22 Z" />
  <path id="MicHandle"
        fill="none" stroke="black" stroke-width="1"
        d="M 230.00,207.50
           C 230.00,207.50 82.50,325.50 82.50,325.50
             73.00,330.00 80.98,286.46 82.00,286.50
             82.00,286.50 190.50,162.50 190.50,162.50
             198.50,184.00 203.50,193.50 230.00,207.50 Z
           M 179.67,305.33" />
</svg>
