<?xml version="1.0" encoding="UTF-8" standalone="no"?>
<!DOCTYPE svg PUBLIC "-//W3C//DTD SVG 20010904//EN"
              "http://www.w3.org/TR/2001/REC-SVG-20010904/DTD/svg10.dtd">

<svg xmlns="http://www.w3.org/2000/svg"
     width="5.55556in" height="5.55556in"
     viewBox="0 0 400 400">
  <path id="InnerCircle"
        fill="none" stroke="black" stroke-width="1"
        d="M 204.00,50.21
           C 222.04,50.03 246.83,55.80 263.00,63.76
             279.02,71.63 294.36,81.15 306.91,94.04
             347.36,135.56 360.91,197.54 340.95,252.00
             333.75,271.64 323.94,286.24 310.42,302.00
             299.15,315.14 282.44,326.53 267.00,334.25
             242.99,346.25 220.65,350.31 194.00,350.00
             183.99,349.88 170.76,347.32 161.00,344.87
             73.89,323.00 26.94,225.13 61.01,143.00
             77.24,103.88 108.15,73.66 148.00,59.05
             161.76,54.01 173.73,52.46 188.00,50.21
             188.00,50.21 204.00,50.21 204.00,50.21 Z" />
  <path id="OuterCircle"
        fill="none" stroke="black" stroke-width="1"
        d="M 205.00,25.21
           C 224.00,25.03 247.38,30.35 265.00,37.40
             285.32,45.53 302.76,56.48 319.00,71.17
             369.05,116.43 386.84,189.16 366.98,253.00
             359.43,277.25 346.44,299.00 329.72,318.00
             316.41,333.12 298.01,346.74 280.00,355.75
             250.76,370.38 225.50,375.38 193.00,375.00
             176.87,374.81 153.03,369.70 138.00,363.80
             112.80,353.90 90.64,339.92 72.09,320.00
             24.30,268.70 11.54,193.07 39.86,129.00
             59.66,84.22 95.96,51.07 142.00,34.69
             157.47,29.19 171.03,27.69 187.00,25.21
             187.00,25.21 205.00,25.21 205.00,25.21 Z" />
</svg>
