<?xml version="1.0" encoding="UTF-8" standalone="no"?>
<!DOCTYPE svg PUBLIC "-//W3C//DTD SVG 20010904//EN"
              "http://www.w3.org/TR/2001/REC-SVG-20010904/DTD/svg10.dtd">

<svg xmlns="http://www.w3.org/2000/svg"
     width="5.55556in" height="5.55556in"
     viewBox="0 0 400 400">
  <path id="HeadsetOff"
        fill="none" stroke="black" stroke-width="1"
        d="M 260.48,235.79
           C 262.30,237.61 268.01,244.10 270.37,244.10
             272.73,244.10 278.44,237.61 280.26,235.79
             285.56,230.52 299.60,215.88 304.61,212.30
             304.61,212.30 326.68,235.04 326.68,235.04
             326.68,235.04 303.02,258.66 303.02,258.66
             301.18,260.44 294.75,266.02 294.75,268.38
             294.75,270.77 301.95,277.10 303.85,279.00
             309.33,284.45 325.31,299.69 328.96,304.77
             328.96,304.77 306.13,326.75 306.13,326.75
             306.13,326.75 280.23,300.97 280.23,300.97
             278.47,299.16 272.71,292.67 270.37,292.67
             267.98,292.67 261.62,299.84 259.72,301.73
             254.24,307.19 238.95,323.11 233.85,326.75
             233.85,326.75 211.78,304.01 211.78,304.01
             211.78,304.01 237.65,278.24 237.65,278.24
             239.47,276.43 245.99,270.74 245.99,268.38
             245.99,266.02 239.56,260.44 237.72,258.66
             237.72,258.66 214.07,234.28 214.07,234.28
             214.07,234.28 236.13,212.30 236.13,212.30
             241.15,215.88 255.19,230.52 260.48,235.79 Z" />
  <path id="Headset"
        fill="none" stroke="black" stroke-width="1"
        d="M 327.20,107.94
           C 324.78,121.71 322.02,145.14 322.00,158.94
             322.00,158.94 321.00,179.13 321.00,179.13
             321.00,179.13 321.00,219.50 321.00,219.50
             321.00,219.50 322.00,240.75 322.00,240.75
             322.00,240.75 324.58,272.63 324.58,272.63
             324.58,272.63 327.77,298.12 327.77,298.12
             327.46,300.64 325.65,306.01 322.35,304.32
             318.88,302.55 317.08,291.37 316.42,287.50
             313.73,271.66 312.17,252.58 312.00,236.50
             312.00,236.50 311.00,220.56 311.00,220.56
             310.96,191.05 310.88,161.72 313.84,132.38
             313.84,132.38 317.21,106.88 317.21,106.88
             318.16,102.15 318.88,97.64 322.35,94.30
             328.98,93.52 327.99,103.42 327.20,107.94 Z
           M 301.20,114.00
           C 298.78,126.96 296.02,149.02 296.00,162.00
             296.00,162.00 295.00,181.00 295.00,181.00
             295.00,181.00 295.00,219.00 295.00,219.00
             295.00,219.00 296.00,239.00 296.00,239.00
             296.00,239.00 298.58,269.00 298.58,269.00
             298.58,269.00 301.77,293.00 301.77,293.00
             301.46,295.37 299.65,300.42 296.35,298.83
             292.88,297.16 291.08,286.65 290.42,283.00
             287.73,268.09 286.17,250.13 286.00,235.00
             286.00,235.00 285.00,220.00 285.00,220.00
             284.96,192.22 284.88,164.61 287.84,137.00
             287.84,137.00 291.21,113.00 291.21,113.00
             292.16,108.55 292.88,104.31 296.35,101.17
             302.98,100.43 301.99,109.75 301.20,114.00 Z
           M 276.00,73.00
           C 276.00,73.00 274.00,327.00 274.00,327.00
             274.00,327.00 120.00,250.00 120.00,250.00
             120.00,250.00 120.00,150.00 120.00,150.00
             120.00,150.00 276.00,73.00 276.00,73.00 Z
           M 112.00,151.00
           C 112.00,151.00 112.00,251.00 112.00,251.00
             112.00,251.00 77.00,251.00 77.00,251.00
             77.00,251.00 77.00,151.00 77.00,151.00
             77.00,151.00 112.00,151.00 112.00,151.00 Z" />
</svg>
